<svg xmlns="http://www.w3.org/2000/svg" xmlns:xlink="http://www.w3.org/1999/xlink" width="500" zoomAndPan="magnify" viewBox="0 0 375 374.999991" height="500" preserveAspectRatio="xMidYMid meet" version="1.0"><defs><clipPath id="41e7df36e1"><path d="M 28.125 28.125 L 346.875 28.125 L 346.875 346.875 L 28.125 346.875 Z M 28.125 28.125 " clip-rule="nonzero"/></clipPath></defs><g clip-path="url(#41e7df36e1)"><path fill="#ffffff" d="M 187.511719 346.886719 C 99.628906 346.886719 28.125 275.390625 28.125 187.511719 C 28.125 99.628906 99.628906 28.125 187.511719 28.125 C 275.390625 28.125 346.894531 99.628906 346.894531 187.511719 C 346.894531 275.390625 275.390625 346.886719 187.511719 346.886719 Z M 187.511719 41.40625 C 106.953125 41.40625 41.40625 106.941406 41.40625 187.511719 C 41.40625 268.078125 106.941406 333.617188 187.511719 333.617188 C 268.078125 333.617188 333.617188 268.078125 333.617188 187.511719 C 333.617188 106.941406 268.066406 41.40625 187.511719 41.40625 Z M 187.511719 41.40625 " fill-opacity="1" fill-rule="nonzero"/></g><path fill="#ffffff" d="M 188.28125 233.992188 C 148.421875 233.992188 115.984375 201.230469 115.984375 160.949219 C 115.984375 120.671875 148.410156 87.898438 188.28125 87.898438 C 228.136719 87.898438 260.5625 120.671875 260.5625 160.949219 C 260.5625 201.230469 228.128906 233.992188 188.28125 233.992188 Z M 188.28125 101.175781 C 155.746094 101.175781 129.277344 127.988281 129.277344 160.949219 C 129.277344 193.90625 155.746094 220.714844 188.28125 220.714844 C 220.8125 220.714844 247.28125 193.90625 247.28125 160.949219 C 247.273438 127.988281 220.8125 101.175781 188.28125 101.175781 Z M 188.28125 101.175781 " fill-opacity="1" fill-rule="nonzero"/><path fill="#ffffff" d="M 287.5 307.046875 C 284.921875 307.046875 282.476562 305.539062 281.394531 303.019531 C 265.398438 265.707031 227.71875 240.636719 187.628906 240.636719 C 147.550781 240.636719 109.871094 265.707031 93.875 303.019531 C 92.425781 306.386719 88.519531 307.945312 85.148438 306.507812 C 81.78125 305.058594 80.222656 301.152344 81.664062 297.785156 C 99.730469 255.65625 142.316406 227.359375 187.628906 227.359375 C 232.953125 227.359375 275.550781 255.667969 293.605469 297.785156 C 295.054688 301.152344 293.488281 305.058594 290.121094 306.507812 C 289.261719 306.875 288.371094 307.046875 287.5 307.046875 Z M 287.5 307.046875 " fill-opacity="1" fill-rule="nonzero"/></svg>